<svg width="747" height="988" viewBox="0 0 747 988" class="keymap" xmlns="http://www.w3.org/2000/svg" xmlns:xlink="http://www.w3.org/1999/xlink">
<style>/* inherit to force styles through use tags */
svg path {
    fill: inherit;
}

/* font and background color specifications */
svg.keymap {
    font-family: SFMono-Regular,Consolas,Liberation Mono,Menlo,monospace;
    font-size: 14px;
    font-kerning: normal;
    text-rendering: optimizeLegibility;
    fill: #24292e;
}

/* default key styling */
rect.key {
    fill: #f6f8fa;
}

rect.key, rect.combo {
    stroke: #c9cccf;
    stroke-width: 1;
}

/* default key side styling, only used is draw_key_sides is set */
rect.side {
    filter: brightness(90%);
}

/* color accent for combo boxes */
rect.combo, rect.combo-separate {
    fill: #cdf;
}

/* color accent for held keys */
rect.held, rect.combo.held {
    fill: #fdd;
}

/* color accent for ghost (optional) keys */
rect.ghost, rect.combo.ghost {
    stroke-dasharray: 4, 4;
    stroke-width: 2;
}

text {
    text-anchor: middle;
    dominant-baseline: middle;
}

/* styling for layer labels */
text.label {
    font-weight: bold;
    text-anchor: start;
    stroke: white;
    stroke-width: 4;
    paint-order: stroke;
}

/* styling for optional footer */
text.footer {
    text-anchor: end;
    dominant-baseline: auto;
    stroke: white;
    stroke-width: 4;
    paint-order: stroke;
}

/* styling for combo tap, and key non-tap label text */
text.combo, text.hold, text.shifted, text.left, text.right, text.tl, text.tr, text.bl, text.br {
    font-size: 11px;
}

text.hold, text.bl, text.br {
    text-anchor: middle;
    dominant-baseline: auto;
}

text.shifted, text.tl, text.tr {
    text-anchor: middle;
    dominant-baseline: hanging;
}

text.left, text.tl, text.bl {
    text-anchor: start;
}

text.right, text.tr, text.br {
    text-anchor: end;
}

text.layer-activator {
    text-decoration: underline;
}

/* styling for hold/shifted label text in combo box */
text.combo.hold, text.combo.shifted, text.combo.left, text.combo.right {
    font-size: 8px;
}

/* lighter symbol for transparent keys */
text.trans {
    fill: #7b7e81;
}

/* styling for combo dendrons */
path.combo {
    stroke-width: 1;
    stroke: gray;
    fill: none;
}

/* Start Tabler Icons Cleanup */
/* cannot use height/width with glyphs */
.icon-tabler > path {
    fill: inherit;
    stroke: inherit;
    stroke-width: 2;
}
/* hide tabler's default box */
.icon-tabler > path[stroke="none"][fill="none"] {
    visibility: hidden;
}
/* End Tabler Icons Cleanup */

@media (prefers-color-scheme: dark) {
svg.keymap { fill: #d1d6db; }
rect.key { fill: #3f4750; }
rect.key, rect.combo { stroke: #60666c; }
rect.combo, rect.combo-separate { fill: #1f3d7a; }
rect.held, rect.combo.held { fill: #854747; }
text.label, text.footer { stroke: black; }
text.trans { fill: #7e8184; }
path.combo { stroke: #7f7f7f; }

}

svg.keymap { background-color: #000000; }</style>
<text x="30" y="28" class="label" id="Combos">Combos:</text>
<g transform="translate(30, 0)" class="layer-combopos-0">
<g transform="translate(0, 56)">
<g transform="translate(28, 28)" class="key  combo-separate keypos-0">
<rect rx="6" ry="6" x="-26" y="-26" width="52" height="52" class="key  combo-separate"/>
<text x="0" y="0" class="key  combo-separate tap">USB/BLE</text>
</g>
<g transform="translate(14, 90)" class="key keypos-1">
<rect rx="6" ry="6" x="-12" y="-12" width="24" height="24" class="key"/>
</g>
<g transform="translate(42, 79)" class="key keypos-2">
<rect rx="6" ry="6" x="-12" y="-12" width="24" height="24" class="key"/>
</g>
<g transform="translate(70, 72)" class="key keypos-3">
<rect rx="6" ry="6" x="-12" y="-12" width="24" height="24" class="key"/>
</g>
<g transform="translate(98, 79)" class="key keypos-4">
<rect rx="6" ry="6" x="-12" y="-12" width="24" height="24" class="key"/>
</g>
<g transform="translate(126, 86)" class="key keypos-5">
<rect rx="6" ry="6" x="-12" y="-12" width="24" height="24" class="key"/>
</g>
<g transform="translate(210, 86)" class="key held keypos-6">
<rect rx="6" ry="6" x="-12" y="-12" width="24" height="24" class="key held"/>
</g>
<g transform="translate(238, 79)" class="key keypos-7">
<rect rx="6" ry="6" x="-12" y="-12" width="24" height="24" class="key"/>
</g>
<g transform="translate(266, 72)" class="key keypos-8">
<rect rx="6" ry="6" x="-12" y="-12" width="24" height="24" class="key"/>
</g>
<g transform="translate(294, 79)" class="key keypos-9">
<rect rx="6" ry="6" x="-12" y="-12" width="24" height="24" class="key"/>
</g>
<g transform="translate(322, 90)" class="key keypos-10">
<rect rx="6" ry="6" x="-12" y="-12" width="24" height="24" class="key"/>
</g>
<g transform="translate(14, 118)" class="key keypos-11">
<rect rx="6" ry="6" x="-12" y="-12" width="24" height="24" class="key"/>
</g>
<g transform="translate(42, 107)" class="key keypos-12">
<rect rx="6" ry="6" x="-12" y="-12" width="24" height="24" class="key"/>
</g>
<g transform="translate(70, 100)" class="key keypos-13">
<rect rx="6" ry="6" x="-12" y="-12" width="24" height="24" class="key"/>
</g>
<g transform="translate(98, 107)" class="key keypos-14">
<rect rx="6" ry="6" x="-12" y="-12" width="24" height="24" class="key"/>
</g>
<g transform="translate(126, 114)" class="key keypos-15">
<rect rx="6" ry="6" x="-12" y="-12" width="24" height="24" class="key"/>
</g>
<g transform="translate(210, 114)" class="key held keypos-16">
<rect rx="6" ry="6" x="-12" y="-12" width="24" height="24" class="key held"/>
</g>
<g transform="translate(238, 107)" class="key keypos-17">
<rect rx="6" ry="6" x="-12" y="-12" width="24" height="24" class="key"/>
</g>
<g transform="translate(266, 100)" class="key keypos-18">
<rect rx="6" ry="6" x="-12" y="-12" width="24" height="24" class="key"/>
</g>
<g transform="translate(294, 107)" class="key keypos-19">
<rect rx="6" ry="6" x="-12" y="-12" width="24" height="24" class="key"/>
</g>
<g transform="translate(322, 118)" class="key keypos-20">
<rect rx="6" ry="6" x="-12" y="-12" width="24" height="24" class="key"/>
</g>
<g transform="translate(14, 146)" class="key keypos-21">
<rect rx="6" ry="6" x="-12" y="-12" width="24" height="24" class="key"/>
</g>
<g transform="translate(42, 135)" class="key keypos-22">
<rect rx="6" ry="6" x="-12" y="-12" width="24" height="24" class="key"/>
</g>
<g transform="translate(70, 128)" class="key keypos-23">
<rect rx="6" ry="6" x="-12" y="-12" width="24" height="24" class="key"/>
</g>
<g transform="translate(98, 135)" class="key keypos-24">
<rect rx="6" ry="6" x="-12" y="-12" width="24" height="24" class="key"/>
</g>
<g transform="translate(126, 142)" class="key keypos-25">
<rect rx="6" ry="6" x="-12" y="-12" width="24" height="24" class="key"/>
</g>
<g transform="translate(210, 142)" class="key held keypos-26">
<rect rx="6" ry="6" x="-12" y="-12" width="24" height="24" class="key held"/>
</g>
<g transform="translate(238, 135)" class="key keypos-27">
<rect rx="6" ry="6" x="-12" y="-12" width="24" height="24" class="key"/>
</g>
<g transform="translate(266, 128)" class="key keypos-28">
<rect rx="6" ry="6" x="-12" y="-12" width="24" height="24" class="key"/>
</g>
<g transform="translate(294, 135)" class="key keypos-29">
<rect rx="6" ry="6" x="-12" y="-12" width="24" height="24" class="key"/>
</g>
<g transform="translate(322, 146)" class="key keypos-30">
<rect rx="6" ry="6" x="-12" y="-12" width="24" height="24" class="key"/>
</g>
<g transform="translate(56, 177)" class="key keypos-31">
<rect rx="6" ry="6" x="-12" y="-12" width="24" height="24" class="key"/>
</g>
<g transform="translate(84, 170)" class="key keypos-32">
<rect rx="6" ry="6" x="-12" y="-12" width="24" height="24" class="key"/>
</g>
<g transform="translate(112, 177)" class="key keypos-33">
<rect rx="6" ry="6" x="-12" y="-12" width="24" height="24" class="key"/>
</g>
<g transform="translate(140, 184)" class="key keypos-34">
<rect rx="6" ry="6" x="-12" y="-12" width="24" height="24" class="key"/>
</g>
<g transform="translate(196, 184)" class="key keypos-35">
<rect rx="6" ry="6" x="-12" y="-12" width="24" height="24" class="key"/>
</g>
<g transform="translate(224, 177)" class="key keypos-36">
<rect rx="6" ry="6" x="-12" y="-12" width="24" height="24" class="key"/>
</g>
</g>
</g>
<g transform="translate(396, 0)" class="layer-combopos-1">
<g transform="translate(0, 56)">
<g transform="translate(28, 28)" class="key  combo-separate keypos-0">
<rect rx="6" ry="6" x="-26" y="-26" width="52" height="52" class="key  combo-separate"/>
<text x="0" y="0" class="key  combo-separate tap">
<tspan x="0" dy="-0.6em">Pairing</tspan><tspan x="0" dy="1.2em">Slot0</tspan>
</text>
</g>
<g transform="translate(14, 90)" class="key keypos-1">
<rect rx="6" ry="6" x="-12" y="-12" width="24" height="24" class="key"/>
</g>
<g transform="translate(42, 79)" class="key keypos-2">
<rect rx="6" ry="6" x="-12" y="-12" width="24" height="24" class="key"/>
</g>
<g transform="translate(70, 72)" class="key keypos-3">
<rect rx="6" ry="6" x="-12" y="-12" width="24" height="24" class="key"/>
</g>
<g transform="translate(98, 79)" class="key keypos-4">
<rect rx="6" ry="6" x="-12" y="-12" width="24" height="24" class="key"/>
</g>
<g transform="translate(126, 86)" class="key keypos-5">
<rect rx="6" ry="6" x="-12" y="-12" width="24" height="24" class="key"/>
</g>
<g transform="translate(210, 86)" class="key held keypos-6">
<rect rx="6" ry="6" x="-12" y="-12" width="24" height="24" class="key held"/>
</g>
<g transform="translate(238, 79)" class="key keypos-7">
<rect rx="6" ry="6" x="-12" y="-12" width="24" height="24" class="key"/>
</g>
<g transform="translate(266, 72)" class="key keypos-8">
<rect rx="6" ry="6" x="-12" y="-12" width="24" height="24" class="key"/>
</g>
<g transform="translate(294, 79)" class="key keypos-9">
<rect rx="6" ry="6" x="-12" y="-12" width="24" height="24" class="key"/>
</g>
<g transform="translate(322, 90)" class="key keypos-10">
<rect rx="6" ry="6" x="-12" y="-12" width="24" height="24" class="key"/>
</g>
<g transform="translate(14, 118)" class="key keypos-11">
<rect rx="6" ry="6" x="-12" y="-12" width="24" height="24" class="key"/>
</g>
<g transform="translate(42, 107)" class="key keypos-12">
<rect rx="6" ry="6" x="-12" y="-12" width="24" height="24" class="key"/>
</g>
<g transform="translate(70, 100)" class="key keypos-13">
<rect rx="6" ry="6" x="-12" y="-12" width="24" height="24" class="key"/>
</g>
<g transform="translate(98, 107)" class="key keypos-14">
<rect rx="6" ry="6" x="-12" y="-12" width="24" height="24" class="key"/>
</g>
<g transform="translate(126, 114)" class="key keypos-15">
<rect rx="6" ry="6" x="-12" y="-12" width="24" height="24" class="key"/>
</g>
<g transform="translate(210, 114)" class="key held keypos-16">
<rect rx="6" ry="6" x="-12" y="-12" width="24" height="24" class="key held"/>
</g>
<g transform="translate(238, 107)" class="key keypos-17">
<rect rx="6" ry="6" x="-12" y="-12" width="24" height="24" class="key"/>
</g>
<g transform="translate(266, 100)" class="key keypos-18">
<rect rx="6" ry="6" x="-12" y="-12" width="24" height="24" class="key"/>
</g>
<g transform="translate(294, 107)" class="key keypos-19">
<rect rx="6" ry="6" x="-12" y="-12" width="24" height="24" class="key"/>
</g>
<g transform="translate(322, 118)" class="key keypos-20">
<rect rx="6" ry="6" x="-12" y="-12" width="24" height="24" class="key"/>
</g>
<g transform="translate(14, 146)" class="key keypos-21">
<rect rx="6" ry="6" x="-12" y="-12" width="24" height="24" class="key"/>
</g>
<g transform="translate(42, 135)" class="key keypos-22">
<rect rx="6" ry="6" x="-12" y="-12" width="24" height="24" class="key"/>
</g>
<g transform="translate(70, 128)" class="key keypos-23">
<rect rx="6" ry="6" x="-12" y="-12" width="24" height="24" class="key"/>
</g>
<g transform="translate(98, 135)" class="key keypos-24">
<rect rx="6" ry="6" x="-12" y="-12" width="24" height="24" class="key"/>
</g>
<g transform="translate(126, 142)" class="key keypos-25">
<rect rx="6" ry="6" x="-12" y="-12" width="24" height="24" class="key"/>
</g>
<g transform="translate(210, 142)" class="key keypos-26">
<rect rx="6" ry="6" x="-12" y="-12" width="24" height="24" class="key"/>
</g>
<g transform="translate(238, 135)" class="key keypos-27">
<rect rx="6" ry="6" x="-12" y="-12" width="24" height="24" class="key"/>
</g>
<g transform="translate(266, 128)" class="key keypos-28">
<rect rx="6" ry="6" x="-12" y="-12" width="24" height="24" class="key"/>
</g>
<g transform="translate(294, 135)" class="key keypos-29">
<rect rx="6" ry="6" x="-12" y="-12" width="24" height="24" class="key"/>
</g>
<g transform="translate(322, 146)" class="key keypos-30">
<rect rx="6" ry="6" x="-12" y="-12" width="24" height="24" class="key"/>
</g>
<g transform="translate(56, 177)" class="key keypos-31">
<rect rx="6" ry="6" x="-12" y="-12" width="24" height="24" class="key"/>
</g>
<g transform="translate(84, 170)" class="key keypos-32">
<rect rx="6" ry="6" x="-12" y="-12" width="24" height="24" class="key"/>
</g>
<g transform="translate(112, 177)" class="key keypos-33">
<rect rx="6" ry="6" x="-12" y="-12" width="24" height="24" class="key"/>
</g>
<g transform="translate(140, 184)" class="key keypos-34">
<rect rx="6" ry="6" x="-12" y="-12" width="24" height="24" class="key"/>
</g>
<g transform="translate(196, 184)" class="key keypos-35">
<rect rx="6" ry="6" x="-12" y="-12" width="24" height="24" class="key"/>
</g>
<g transform="translate(224, 177)" class="key keypos-36">
<rect rx="6" ry="6" x="-12" y="-12" width="24" height="24" class="key"/>
</g>
</g>
</g>
<g transform="translate(30, 254)" class="layer-combopos-2">
<g transform="translate(0, 28)">
<g transform="translate(28, 28)" class="key  combo-separate keypos-0">
<rect rx="6" ry="6" x="-26" y="-26" width="52" height="52" class="key  combo-separate"/>
<text x="0" y="0" class="key  combo-separate tap">
<tspan x="0" dy="-0.6em">Pairing</tspan><tspan x="0" dy="1.2em">Slot1</tspan>
</text>
</g>
<g transform="translate(14, 90)" class="key keypos-1">
<rect rx="6" ry="6" x="-12" y="-12" width="24" height="24" class="key"/>
</g>
<g transform="translate(42, 79)" class="key keypos-2">
<rect rx="6" ry="6" x="-12" y="-12" width="24" height="24" class="key"/>
</g>
<g transform="translate(70, 72)" class="key keypos-3">
<rect rx="6" ry="6" x="-12" y="-12" width="24" height="24" class="key"/>
</g>
<g transform="translate(98, 79)" class="key keypos-4">
<rect rx="6" ry="6" x="-12" y="-12" width="24" height="24" class="key"/>
</g>
<g transform="translate(126, 86)" class="key keypos-5">
<rect rx="6" ry="6" x="-12" y="-12" width="24" height="24" class="key"/>
</g>
<g transform="translate(210, 86)" class="key keypos-6">
<rect rx="6" ry="6" x="-12" y="-12" width="24" height="24" class="key"/>
</g>
<g transform="translate(238, 79)" class="key held keypos-7">
<rect rx="6" ry="6" x="-12" y="-12" width="24" height="24" class="key held"/>
</g>
<g transform="translate(266, 72)" class="key keypos-8">
<rect rx="6" ry="6" x="-12" y="-12" width="24" height="24" class="key"/>
</g>
<g transform="translate(294, 79)" class="key keypos-9">
<rect rx="6" ry="6" x="-12" y="-12" width="24" height="24" class="key"/>
</g>
<g transform="translate(322, 90)" class="key keypos-10">
<rect rx="6" ry="6" x="-12" y="-12" width="24" height="24" class="key"/>
</g>
<g transform="translate(14, 118)" class="key keypos-11">
<rect rx="6" ry="6" x="-12" y="-12" width="24" height="24" class="key"/>
</g>
<g transform="translate(42, 107)" class="key keypos-12">
<rect rx="6" ry="6" x="-12" y="-12" width="24" height="24" class="key"/>
</g>
<g transform="translate(70, 100)" class="key keypos-13">
<rect rx="6" ry="6" x="-12" y="-12" width="24" height="24" class="key"/>
</g>
<g transform="translate(98, 107)" class="key keypos-14">
<rect rx="6" ry="6" x="-12" y="-12" width="24" height="24" class="key"/>
</g>
<g transform="translate(126, 114)" class="key keypos-15">
<rect rx="6" ry="6" x="-12" y="-12" width="24" height="24" class="key"/>
</g>
<g transform="translate(210, 114)" class="key keypos-16">
<rect rx="6" ry="6" x="-12" y="-12" width="24" height="24" class="key"/>
</g>
<g transform="translate(238, 107)" class="key held keypos-17">
<rect rx="6" ry="6" x="-12" y="-12" width="24" height="24" class="key held"/>
</g>
<g transform="translate(266, 100)" class="key keypos-18">
<rect rx="6" ry="6" x="-12" y="-12" width="24" height="24" class="key"/>
</g>
<g transform="translate(294, 107)" class="key keypos-19">
<rect rx="6" ry="6" x="-12" y="-12" width="24" height="24" class="key"/>
</g>
<g transform="translate(322, 118)" class="key keypos-20">
<rect rx="6" ry="6" x="-12" y="-12" width="24" height="24" class="key"/>
</g>
<g transform="translate(14, 146)" class="key keypos-21">
<rect rx="6" ry="6" x="-12" y="-12" width="24" height="24" class="key"/>
</g>
<g transform="translate(42, 135)" class="key keypos-22">
<rect rx="6" ry="6" x="-12" y="-12" width="24" height="24" class="key"/>
</g>
<g transform="translate(70, 128)" class="key keypos-23">
<rect rx="6" ry="6" x="-12" y="-12" width="24" height="24" class="key"/>
</g>
<g transform="translate(98, 135)" class="key keypos-24">
<rect rx="6" ry="6" x="-12" y="-12" width="24" height="24" class="key"/>
</g>
<g transform="translate(126, 142)" class="key keypos-25">
<rect rx="6" ry="6" x="-12" y="-12" width="24" height="24" class="key"/>
</g>
<g transform="translate(210, 142)" class="key keypos-26">
<rect rx="6" ry="6" x="-12" y="-12" width="24" height="24" class="key"/>
</g>
<g transform="translate(238, 135)" class="key keypos-27">
<rect rx="6" ry="6" x="-12" y="-12" width="24" height="24" class="key"/>
</g>
<g transform="translate(266, 128)" class="key keypos-28">
<rect rx="6" ry="6" x="-12" y="-12" width="24" height="24" class="key"/>
</g>
<g transform="translate(294, 135)" class="key keypos-29">
<rect rx="6" ry="6" x="-12" y="-12" width="24" height="24" class="key"/>
</g>
<g transform="translate(322, 146)" class="key keypos-30">
<rect rx="6" ry="6" x="-12" y="-12" width="24" height="24" class="key"/>
</g>
<g transform="translate(56, 177)" class="key keypos-31">
<rect rx="6" ry="6" x="-12" y="-12" width="24" height="24" class="key"/>
</g>
<g transform="translate(84, 170)" class="key keypos-32">
<rect rx="6" ry="6" x="-12" y="-12" width="24" height="24" class="key"/>
</g>
<g transform="translate(112, 177)" class="key keypos-33">
<rect rx="6" ry="6" x="-12" y="-12" width="24" height="24" class="key"/>
</g>
<g transform="translate(140, 184)" class="key keypos-34">
<rect rx="6" ry="6" x="-12" y="-12" width="24" height="24" class="key"/>
</g>
<g transform="translate(196, 184)" class="key keypos-35">
<rect rx="6" ry="6" x="-12" y="-12" width="24" height="24" class="key"/>
</g>
<g transform="translate(224, 177)" class="key keypos-36">
<rect rx="6" ry="6" x="-12" y="-12" width="24" height="24" class="key"/>
</g>
</g>
</g>
<g transform="translate(396, 254)" class="layer-combopos-3">
<g transform="translate(0, 28)">
<g transform="translate(28, 28)" class="key  combo-separate keypos-0">
<rect rx="6" ry="6" x="-26" y="-26" width="52" height="52" class="key  combo-separate"/>
<text x="0" y="0" class="key  combo-separate tap">
<tspan x="0" dy="-0.6em">Pairing</tspan><tspan x="0" dy="1.2em">Slot2</tspan>
</text>
</g>
<g transform="translate(14, 90)" class="key keypos-1">
<rect rx="6" ry="6" x="-12" y="-12" width="24" height="24" class="key"/>
</g>
<g transform="translate(42, 79)" class="key keypos-2">
<rect rx="6" ry="6" x="-12" y="-12" width="24" height="24" class="key"/>
</g>
<g transform="translate(70, 72)" class="key keypos-3">
<rect rx="6" ry="6" x="-12" y="-12" width="24" height="24" class="key"/>
</g>
<g transform="translate(98, 79)" class="key keypos-4">
<rect rx="6" ry="6" x="-12" y="-12" width="24" height="24" class="key"/>
</g>
<g transform="translate(126, 86)" class="key keypos-5">
<rect rx="6" ry="6" x="-12" y="-12" width="24" height="24" class="key"/>
</g>
<g transform="translate(210, 86)" class="key keypos-6">
<rect rx="6" ry="6" x="-12" y="-12" width="24" height="24" class="key"/>
</g>
<g transform="translate(238, 79)" class="key keypos-7">
<rect rx="6" ry="6" x="-12" y="-12" width="24" height="24" class="key"/>
</g>
<g transform="translate(266, 72)" class="key held keypos-8">
<rect rx="6" ry="6" x="-12" y="-12" width="24" height="24" class="key held"/>
</g>
<g transform="translate(294, 79)" class="key keypos-9">
<rect rx="6" ry="6" x="-12" y="-12" width="24" height="24" class="key"/>
</g>
<g transform="translate(322, 90)" class="key keypos-10">
<rect rx="6" ry="6" x="-12" y="-12" width="24" height="24" class="key"/>
</g>
<g transform="translate(14, 118)" class="key keypos-11">
<rect rx="6" ry="6" x="-12" y="-12" width="24" height="24" class="key"/>
</g>
<g transform="translate(42, 107)" class="key keypos-12">
<rect rx="6" ry="6" x="-12" y="-12" width="24" height="24" class="key"/>
</g>
<g transform="translate(70, 100)" class="key keypos-13">
<rect rx="6" ry="6" x="-12" y="-12" width="24" height="24" class="key"/>
</g>
<g transform="translate(98, 107)" class="key keypos-14">
<rect rx="6" ry="6" x="-12" y="-12" width="24" height="24" class="key"/>
</g>
<g transform="translate(126, 114)" class="key keypos-15">
<rect rx="6" ry="6" x="-12" y="-12" width="24" height="24" class="key"/>
</g>
<g transform="translate(210, 114)" class="key keypos-16">
<rect rx="6" ry="6" x="-12" y="-12" width="24" height="24" class="key"/>
</g>
<g transform="translate(238, 107)" class="key keypos-17">
<rect rx="6" ry="6" x="-12" y="-12" width="24" height="24" class="key"/>
</g>
<g transform="translate(266, 100)" class="key held keypos-18">
<rect rx="6" ry="6" x="-12" y="-12" width="24" height="24" class="key held"/>
</g>
<g transform="translate(294, 107)" class="key keypos-19">
<rect rx="6" ry="6" x="-12" y="-12" width="24" height="24" class="key"/>
</g>
<g transform="translate(322, 118)" class="key keypos-20">
<rect rx="6" ry="6" x="-12" y="-12" width="24" height="24" class="key"/>
</g>
<g transform="translate(14, 146)" class="key keypos-21">
<rect rx="6" ry="6" x="-12" y="-12" width="24" height="24" class="key"/>
</g>
<g transform="translate(42, 135)" class="key keypos-22">
<rect rx="6" ry="6" x="-12" y="-12" width="24" height="24" class="key"/>
</g>
<g transform="translate(70, 128)" class="key keypos-23">
<rect rx="6" ry="6" x="-12" y="-12" width="24" height="24" class="key"/>
</g>
<g transform="translate(98, 135)" class="key keypos-24">
<rect rx="6" ry="6" x="-12" y="-12" width="24" height="24" class="key"/>
</g>
<g transform="translate(126, 142)" class="key keypos-25">
<rect rx="6" ry="6" x="-12" y="-12" width="24" height="24" class="key"/>
</g>
<g transform="translate(210, 142)" class="key keypos-26">
<rect rx="6" ry="6" x="-12" y="-12" width="24" height="24" class="key"/>
</g>
<g transform="translate(238, 135)" class="key keypos-27">
<rect rx="6" ry="6" x="-12" y="-12" width="24" height="24" class="key"/>
</g>
<g transform="translate(266, 128)" class="key keypos-28">
<rect rx="6" ry="6" x="-12" y="-12" width="24" height="24" class="key"/>
</g>
<g transform="translate(294, 135)" class="key keypos-29">
<rect rx="6" ry="6" x="-12" y="-12" width="24" height="24" class="key"/>
</g>
<g transform="translate(322, 146)" class="key keypos-30">
<rect rx="6" ry="6" x="-12" y="-12" width="24" height="24" class="key"/>
</g>
<g transform="translate(56, 177)" class="key keypos-31">
<rect rx="6" ry="6" x="-12" y="-12" width="24" height="24" class="key"/>
</g>
<g transform="translate(84, 170)" class="key keypos-32">
<rect rx="6" ry="6" x="-12" y="-12" width="24" height="24" class="key"/>
</g>
<g transform="translate(112, 177)" class="key keypos-33">
<rect rx="6" ry="6" x="-12" y="-12" width="24" height="24" class="key"/>
</g>
<g transform="translate(140, 184)" class="key keypos-34">
<rect rx="6" ry="6" x="-12" y="-12" width="24" height="24" class="key"/>
</g>
<g transform="translate(196, 184)" class="key keypos-35">
<rect rx="6" ry="6" x="-12" y="-12" width="24" height="24" class="key"/>
</g>
<g transform="translate(224, 177)" class="key keypos-36">
<rect rx="6" ry="6" x="-12" y="-12" width="24" height="24" class="key"/>
</g>
</g>
</g>
<g transform="translate(30, 480)" class="layer-combopos-4">
<g transform="translate(0, 28)">
<g transform="translate(28, 28)" class="key  combo-separate keypos-0">
<rect rx="6" ry="6" x="-26" y="-26" width="52" height="52" class="key  combo-separate"/>
<text x="0" y="0" class="key  combo-separate tap">
<tspan x="0" dy="-0.6em">Pairing</tspan><tspan x="0" dy="1.2em">Slot3</tspan>
</text>
</g>
<g transform="translate(14, 90)" class="key keypos-1">
<rect rx="6" ry="6" x="-12" y="-12" width="24" height="24" class="key"/>
</g>
<g transform="translate(42, 79)" class="key keypos-2">
<rect rx="6" ry="6" x="-12" y="-12" width="24" height="24" class="key"/>
</g>
<g transform="translate(70, 72)" class="key keypos-3">
<rect rx="6" ry="6" x="-12" y="-12" width="24" height="24" class="key"/>
</g>
<g transform="translate(98, 79)" class="key keypos-4">
<rect rx="6" ry="6" x="-12" y="-12" width="24" height="24" class="key"/>
</g>
<g transform="translate(126, 86)" class="key keypos-5">
<rect rx="6" ry="6" x="-12" y="-12" width="24" height="24" class="key"/>
</g>
<g transform="translate(210, 86)" class="key keypos-6">
<rect rx="6" ry="6" x="-12" y="-12" width="24" height="24" class="key"/>
</g>
<g transform="translate(238, 79)" class="key keypos-7">
<rect rx="6" ry="6" x="-12" y="-12" width="24" height="24" class="key"/>
</g>
<g transform="translate(266, 72)" class="key keypos-8">
<rect rx="6" ry="6" x="-12" y="-12" width="24" height="24" class="key"/>
</g>
<g transform="translate(294, 79)" class="key held keypos-9">
<rect rx="6" ry="6" x="-12" y="-12" width="24" height="24" class="key held"/>
</g>
<g transform="translate(322, 90)" class="key keypos-10">
<rect rx="6" ry="6" x="-12" y="-12" width="24" height="24" class="key"/>
</g>
<g transform="translate(14, 118)" class="key keypos-11">
<rect rx="6" ry="6" x="-12" y="-12" width="24" height="24" class="key"/>
</g>
<g transform="translate(42, 107)" class="key keypos-12">
<rect rx="6" ry="6" x="-12" y="-12" width="24" height="24" class="key"/>
</g>
<g transform="translate(70, 100)" class="key keypos-13">
<rect rx="6" ry="6" x="-12" y="-12" width="24" height="24" class="key"/>
</g>
<g transform="translate(98, 107)" class="key keypos-14">
<rect rx="6" ry="6" x="-12" y="-12" width="24" height="24" class="key"/>
</g>
<g transform="translate(126, 114)" class="key keypos-15">
<rect rx="6" ry="6" x="-12" y="-12" width="24" height="24" class="key"/>
</g>
<g transform="translate(210, 114)" class="key keypos-16">
<rect rx="6" ry="6" x="-12" y="-12" width="24" height="24" class="key"/>
</g>
<g transform="translate(238, 107)" class="key keypos-17">
<rect rx="6" ry="6" x="-12" y="-12" width="24" height="24" class="key"/>
</g>
<g transform="translate(266, 100)" class="key keypos-18">
<rect rx="6" ry="6" x="-12" y="-12" width="24" height="24" class="key"/>
</g>
<g transform="translate(294, 107)" class="key held keypos-19">
<rect rx="6" ry="6" x="-12" y="-12" width="24" height="24" class="key held"/>
</g>
<g transform="translate(322, 118)" class="key keypos-20">
<rect rx="6" ry="6" x="-12" y="-12" width="24" height="24" class="key"/>
</g>
<g transform="translate(14, 146)" class="key keypos-21">
<rect rx="6" ry="6" x="-12" y="-12" width="24" height="24" class="key"/>
</g>
<g transform="translate(42, 135)" class="key keypos-22">
<rect rx="6" ry="6" x="-12" y="-12" width="24" height="24" class="key"/>
</g>
<g transform="translate(70, 128)" class="key keypos-23">
<rect rx="6" ry="6" x="-12" y="-12" width="24" height="24" class="key"/>
</g>
<g transform="translate(98, 135)" class="key keypos-24">
<rect rx="6" ry="6" x="-12" y="-12" width="24" height="24" class="key"/>
</g>
<g transform="translate(126, 142)" class="key keypos-25">
<rect rx="6" ry="6" x="-12" y="-12" width="24" height="24" class="key"/>
</g>
<g transform="translate(210, 142)" class="key keypos-26">
<rect rx="6" ry="6" x="-12" y="-12" width="24" height="24" class="key"/>
</g>
<g transform="translate(238, 135)" class="key keypos-27">
<rect rx="6" ry="6" x="-12" y="-12" width="24" height="24" class="key"/>
</g>
<g transform="translate(266, 128)" class="key keypos-28">
<rect rx="6" ry="6" x="-12" y="-12" width="24" height="24" class="key"/>
</g>
<g transform="translate(294, 135)" class="key keypos-29">
<rect rx="6" ry="6" x="-12" y="-12" width="24" height="24" class="key"/>
</g>
<g transform="translate(322, 146)" class="key keypos-30">
<rect rx="6" ry="6" x="-12" y="-12" width="24" height="24" class="key"/>
</g>
<g transform="translate(56, 177)" class="key keypos-31">
<rect rx="6" ry="6" x="-12" y="-12" width="24" height="24" class="key"/>
</g>
<g transform="translate(84, 170)" class="key keypos-32">
<rect rx="6" ry="6" x="-12" y="-12" width="24" height="24" class="key"/>
</g>
<g transform="translate(112, 177)" class="key keypos-33">
<rect rx="6" ry="6" x="-12" y="-12" width="24" height="24" class="key"/>
</g>
<g transform="translate(140, 184)" class="key keypos-34">
<rect rx="6" ry="6" x="-12" y="-12" width="24" height="24" class="key"/>
</g>
<g transform="translate(196, 184)" class="key keypos-35">
<rect rx="6" ry="6" x="-12" y="-12" width="24" height="24" class="key"/>
</g>
<g transform="translate(224, 177)" class="key keypos-36">
<rect rx="6" ry="6" x="-12" y="-12" width="24" height="24" class="key"/>
</g>
</g>
</g>
<g transform="translate(396, 480)" class="layer-combopos-5">
<g transform="translate(0, 28)">
<g transform="translate(28, 28)" class="key  combo-separate keypos-0">
<rect rx="6" ry="6" x="-26" y="-26" width="52" height="52" class="key  combo-separate"/>
<text x="0" y="0" class="key  combo-separate tap">
<tspan x="0" dy="-0.6em">Pairing</tspan><tspan x="0" dy="1.2em">Slot4</tspan>
</text>
</g>
<g transform="translate(14, 90)" class="key keypos-1">
<rect rx="6" ry="6" x="-12" y="-12" width="24" height="24" class="key"/>
</g>
<g transform="translate(42, 79)" class="key keypos-2">
<rect rx="6" ry="6" x="-12" y="-12" width="24" height="24" class="key"/>
</g>
<g transform="translate(70, 72)" class="key keypos-3">
<rect rx="6" ry="6" x="-12" y="-12" width="24" height="24" class="key"/>
</g>
<g transform="translate(98, 79)" class="key keypos-4">
<rect rx="6" ry="6" x="-12" y="-12" width="24" height="24" class="key"/>
</g>
<g transform="translate(126, 86)" class="key keypos-5">
<rect rx="6" ry="6" x="-12" y="-12" width="24" height="24" class="key"/>
</g>
<g transform="translate(210, 86)" class="key keypos-6">
<rect rx="6" ry="6" x="-12" y="-12" width="24" height="24" class="key"/>
</g>
<g transform="translate(238, 79)" class="key keypos-7">
<rect rx="6" ry="6" x="-12" y="-12" width="24" height="24" class="key"/>
</g>
<g transform="translate(266, 72)" class="key keypos-8">
<rect rx="6" ry="6" x="-12" y="-12" width="24" height="24" class="key"/>
</g>
<g transform="translate(294, 79)" class="key keypos-9">
<rect rx="6" ry="6" x="-12" y="-12" width="24" height="24" class="key"/>
</g>
<g transform="translate(322, 90)" class="key held keypos-10">
<rect rx="6" ry="6" x="-12" y="-12" width="24" height="24" class="key held"/>
</g>
<g transform="translate(14, 118)" class="key keypos-11">
<rect rx="6" ry="6" x="-12" y="-12" width="24" height="24" class="key"/>
</g>
<g transform="translate(42, 107)" class="key keypos-12">
<rect rx="6" ry="6" x="-12" y="-12" width="24" height="24" class="key"/>
</g>
<g transform="translate(70, 100)" class="key keypos-13">
<rect rx="6" ry="6" x="-12" y="-12" width="24" height="24" class="key"/>
</g>
<g transform="translate(98, 107)" class="key keypos-14">
<rect rx="6" ry="6" x="-12" y="-12" width="24" height="24" class="key"/>
</g>
<g transform="translate(126, 114)" class="key keypos-15">
<rect rx="6" ry="6" x="-12" y="-12" width="24" height="24" class="key"/>
</g>
<g transform="translate(210, 114)" class="key keypos-16">
<rect rx="6" ry="6" x="-12" y="-12" width="24" height="24" class="key"/>
</g>
<g transform="translate(238, 107)" class="key keypos-17">
<rect rx="6" ry="6" x="-12" y="-12" width="24" height="24" class="key"/>
</g>
<g transform="translate(266, 100)" class="key keypos-18">
<rect rx="6" ry="6" x="-12" y="-12" width="24" height="24" class="key"/>
</g>
<g transform="translate(294, 107)" class="key keypos-19">
<rect rx="6" ry="6" x="-12" y="-12" width="24" height="24" class="key"/>
</g>
<g transform="translate(322, 118)" class="key held keypos-20">
<rect rx="6" ry="6" x="-12" y="-12" width="24" height="24" class="key held"/>
</g>
<g transform="translate(14, 146)" class="key keypos-21">
<rect rx="6" ry="6" x="-12" y="-12" width="24" height="24" class="key"/>
</g>
<g transform="translate(42, 135)" class="key keypos-22">
<rect rx="6" ry="6" x="-12" y="-12" width="24" height="24" class="key"/>
</g>
<g transform="translate(70, 128)" class="key keypos-23">
<rect rx="6" ry="6" x="-12" y="-12" width="24" height="24" class="key"/>
</g>
<g transform="translate(98, 135)" class="key keypos-24">
<rect rx="6" ry="6" x="-12" y="-12" width="24" height="24" class="key"/>
</g>
<g transform="translate(126, 142)" class="key keypos-25">
<rect rx="6" ry="6" x="-12" y="-12" width="24" height="24" class="key"/>
</g>
<g transform="translate(210, 142)" class="key keypos-26">
<rect rx="6" ry="6" x="-12" y="-12" width="24" height="24" class="key"/>
</g>
<g transform="translate(238, 135)" class="key keypos-27">
<rect rx="6" ry="6" x="-12" y="-12" width="24" height="24" class="key"/>
</g>
<g transform="translate(266, 128)" class="key keypos-28">
<rect rx="6" ry="6" x="-12" y="-12" width="24" height="24" class="key"/>
</g>
<g transform="translate(294, 135)" class="key keypos-29">
<rect rx="6" ry="6" x="-12" y="-12" width="24" height="24" class="key"/>
</g>
<g transform="translate(322, 146)" class="key keypos-30">
<rect rx="6" ry="6" x="-12" y="-12" width="24" height="24" class="key"/>
</g>
<g transform="translate(56, 177)" class="key keypos-31">
<rect rx="6" ry="6" x="-12" y="-12" width="24" height="24" class="key"/>
</g>
<g transform="translate(84, 170)" class="key keypos-32">
<rect rx="6" ry="6" x="-12" y="-12" width="24" height="24" class="key"/>
</g>
<g transform="translate(112, 177)" class="key keypos-33">
<rect rx="6" ry="6" x="-12" y="-12" width="24" height="24" class="key"/>
</g>
<g transform="translate(140, 184)" class="key keypos-34">
<rect rx="6" ry="6" x="-12" y="-12" width="24" height="24" class="key"/>
</g>
<g transform="translate(196, 184)" class="key keypos-35">
<rect rx="6" ry="6" x="-12" y="-12" width="24" height="24" class="key"/>
</g>
<g transform="translate(224, 177)" class="key keypos-36">
<rect rx="6" ry="6" x="-12" y="-12" width="24" height="24" class="key"/>
</g>
</g>
</g>
<g transform="translate(30, 706)" class="layer-combopos-6">
<g transform="translate(0, 28)">
<g transform="translate(28, 28)" class="key  combo-separate keypos-0">
<rect rx="6" ry="6" x="-26" y="-26" width="52" height="52" class="key  combo-separate"/>
<text x="0" y="0" class="key  combo-separate tap">
<tspan x="0" dy="-0.6em">Pairing</tspan><tspan x="0" dy="1.2em">Delete</tspan>
</text>
</g>
<g transform="translate(14, 90)" class="key keypos-1">
<rect rx="6" ry="6" x="-12" y="-12" width="24" height="24" class="key"/>
</g>
<g transform="translate(42, 79)" class="key keypos-2">
<rect rx="6" ry="6" x="-12" y="-12" width="24" height="24" class="key"/>
</g>
<g transform="translate(70, 72)" class="key keypos-3">
<rect rx="6" ry="6" x="-12" y="-12" width="24" height="24" class="key"/>
</g>
<g transform="translate(98, 79)" class="key keypos-4">
<rect rx="6" ry="6" x="-12" y="-12" width="24" height="24" class="key"/>
</g>
<g transform="translate(126, 86)" class="key keypos-5">
<rect rx="6" ry="6" x="-12" y="-12" width="24" height="24" class="key"/>
</g>
<g transform="translate(210, 86)" class="key keypos-6">
<rect rx="6" ry="6" x="-12" y="-12" width="24" height="24" class="key"/>
</g>
<g transform="translate(238, 79)" class="key keypos-7">
<rect rx="6" ry="6" x="-12" y="-12" width="24" height="24" class="key"/>
</g>
<g transform="translate(266, 72)" class="key keypos-8">
<rect rx="6" ry="6" x="-12" y="-12" width="24" height="24" class="key"/>
</g>
<g transform="translate(294, 79)" class="key keypos-9">
<rect rx="6" ry="6" x="-12" y="-12" width="24" height="24" class="key"/>
</g>
<g transform="translate(322, 90)" class="key held keypos-10">
<rect rx="6" ry="6" x="-12" y="-12" width="24" height="24" class="key held"/>
</g>
<g transform="translate(14, 118)" class="key keypos-11">
<rect rx="6" ry="6" x="-12" y="-12" width="24" height="24" class="key"/>
</g>
<g transform="translate(42, 107)" class="key keypos-12">
<rect rx="6" ry="6" x="-12" y="-12" width="24" height="24" class="key"/>
</g>
<g transform="translate(70, 100)" class="key keypos-13">
<rect rx="6" ry="6" x="-12" y="-12" width="24" height="24" class="key"/>
</g>
<g transform="translate(98, 107)" class="key keypos-14">
<rect rx="6" ry="6" x="-12" y="-12" width="24" height="24" class="key"/>
</g>
<g transform="translate(126, 114)" class="key keypos-15">
<rect rx="6" ry="6" x="-12" y="-12" width="24" height="24" class="key"/>
</g>
<g transform="translate(210, 114)" class="key keypos-16">
<rect rx="6" ry="6" x="-12" y="-12" width="24" height="24" class="key"/>
</g>
<g transform="translate(238, 107)" class="key keypos-17">
<rect rx="6" ry="6" x="-12" y="-12" width="24" height="24" class="key"/>
</g>
<g transform="translate(266, 100)" class="key keypos-18">
<rect rx="6" ry="6" x="-12" y="-12" width="24" height="24" class="key"/>
</g>
<g transform="translate(294, 107)" class="key keypos-19">
<rect rx="6" ry="6" x="-12" y="-12" width="24" height="24" class="key"/>
</g>
<g transform="translate(322, 118)" class="key held keypos-20">
<rect rx="6" ry="6" x="-12" y="-12" width="24" height="24" class="key held"/>
</g>
<g transform="translate(14, 146)" class="key keypos-21">
<rect rx="6" ry="6" x="-12" y="-12" width="24" height="24" class="key"/>
</g>
<g transform="translate(42, 135)" class="key keypos-22">
<rect rx="6" ry="6" x="-12" y="-12" width="24" height="24" class="key"/>
</g>
<g transform="translate(70, 128)" class="key keypos-23">
<rect rx="6" ry="6" x="-12" y="-12" width="24" height="24" class="key"/>
</g>
<g transform="translate(98, 135)" class="key keypos-24">
<rect rx="6" ry="6" x="-12" y="-12" width="24" height="24" class="key"/>
</g>
<g transform="translate(126, 142)" class="key keypos-25">
<rect rx="6" ry="6" x="-12" y="-12" width="24" height="24" class="key"/>
</g>
<g transform="translate(210, 142)" class="key keypos-26">
<rect rx="6" ry="6" x="-12" y="-12" width="24" height="24" class="key"/>
</g>
<g transform="translate(238, 135)" class="key keypos-27">
<rect rx="6" ry="6" x="-12" y="-12" width="24" height="24" class="key"/>
</g>
<g transform="translate(266, 128)" class="key keypos-28">
<rect rx="6" ry="6" x="-12" y="-12" width="24" height="24" class="key"/>
</g>
<g transform="translate(294, 135)" class="key keypos-29">
<rect rx="6" ry="6" x="-12" y="-12" width="24" height="24" class="key"/>
</g>
<g transform="translate(322, 146)" class="key held keypos-30">
<rect rx="6" ry="6" x="-12" y="-12" width="24" height="24" class="key held"/>
</g>
<g transform="translate(56, 177)" class="key keypos-31">
<rect rx="6" ry="6" x="-12" y="-12" width="24" height="24" class="key"/>
</g>
<g transform="translate(84, 170)" class="key keypos-32">
<rect rx="6" ry="6" x="-12" y="-12" width="24" height="24" class="key"/>
</g>
<g transform="translate(112, 177)" class="key keypos-33">
<rect rx="6" ry="6" x="-12" y="-12" width="24" height="24" class="key"/>
</g>
<g transform="translate(140, 184)" class="key keypos-34">
<rect rx="6" ry="6" x="-12" y="-12" width="24" height="24" class="key"/>
</g>
<g transform="translate(196, 184)" class="key keypos-35">
<rect rx="6" ry="6" x="-12" y="-12" width="24" height="24" class="key"/>
</g>
<g transform="translate(224, 177)" class="key keypos-36">
<rect rx="6" ry="6" x="-12" y="-12" width="24" height="24" class="key"/>
</g>
</g>
</g>
<g transform="translate(396, 706)" class="layer-combopos-7">
<g transform="translate(0, 28)">
<g transform="translate(28, 28)" class="key  combo-separate keypos-0">
<rect rx="6" ry="6" x="-26" y="-26" width="52" height="52" class="key  combo-separate"/>
<text x="0" y="0" class="key  combo-separate tap"><tspan style="font-size: 70%">Bootloader</tspan></text>
</g>
<g transform="translate(14, 90)" class="key held keypos-1">
<rect rx="6" ry="6" x="-12" y="-12" width="24" height="24" class="key held"/>
</g>
<g transform="translate(42, 79)" class="key keypos-2">
<rect rx="6" ry="6" x="-12" y="-12" width="24" height="24" class="key"/>
</g>
<g transform="translate(70, 72)" class="key keypos-3">
<rect rx="6" ry="6" x="-12" y="-12" width="24" height="24" class="key"/>
</g>
<g transform="translate(98, 79)" class="key keypos-4">
<rect rx="6" ry="6" x="-12" y="-12" width="24" height="24" class="key"/>
</g>
<g transform="translate(126, 86)" class="key keypos-5">
<rect rx="6" ry="6" x="-12" y="-12" width="24" height="24" class="key"/>
</g>
<g transform="translate(210, 86)" class="key keypos-6">
<rect rx="6" ry="6" x="-12" y="-12" width="24" height="24" class="key"/>
</g>
<g transform="translate(238, 79)" class="key keypos-7">
<rect rx="6" ry="6" x="-12" y="-12" width="24" height="24" class="key"/>
</g>
<g transform="translate(266, 72)" class="key keypos-8">
<rect rx="6" ry="6" x="-12" y="-12" width="24" height="24" class="key"/>
</g>
<g transform="translate(294, 79)" class="key keypos-9">
<rect rx="6" ry="6" x="-12" y="-12" width="24" height="24" class="key"/>
</g>
<g transform="translate(322, 90)" class="key keypos-10">
<rect rx="6" ry="6" x="-12" y="-12" width="24" height="24" class="key"/>
</g>
<g transform="translate(14, 118)" class="key held keypos-11">
<rect rx="6" ry="6" x="-12" y="-12" width="24" height="24" class="key held"/>
</g>
<g transform="translate(42, 107)" class="key keypos-12">
<rect rx="6" ry="6" x="-12" y="-12" width="24" height="24" class="key"/>
</g>
<g transform="translate(70, 100)" class="key keypos-13">
<rect rx="6" ry="6" x="-12" y="-12" width="24" height="24" class="key"/>
</g>
<g transform="translate(98, 107)" class="key keypos-14">
<rect rx="6" ry="6" x="-12" y="-12" width="24" height="24" class="key"/>
</g>
<g transform="translate(126, 114)" class="key keypos-15">
<rect rx="6" ry="6" x="-12" y="-12" width="24" height="24" class="key"/>
</g>
<g transform="translate(210, 114)" class="key keypos-16">
<rect rx="6" ry="6" x="-12" y="-12" width="24" height="24" class="key"/>
</g>
<g transform="translate(238, 107)" class="key keypos-17">
<rect rx="6" ry="6" x="-12" y="-12" width="24" height="24" class="key"/>
</g>
<g transform="translate(266, 100)" class="key keypos-18">
<rect rx="6" ry="6" x="-12" y="-12" width="24" height="24" class="key"/>
</g>
<g transform="translate(294, 107)" class="key keypos-19">
<rect rx="6" ry="6" x="-12" y="-12" width="24" height="24" class="key"/>
</g>
<g transform="translate(322, 118)" class="key keypos-20">
<rect rx="6" ry="6" x="-12" y="-12" width="24" height="24" class="key"/>
</g>
<g transform="translate(14, 146)" class="key held keypos-21">
<rect rx="6" ry="6" x="-12" y="-12" width="24" height="24" class="key held"/>
</g>
<g transform="translate(42, 135)" class="key keypos-22">
<rect rx="6" ry="6" x="-12" y="-12" width="24" height="24" class="key"/>
</g>
<g transform="translate(70, 128)" class="key keypos-23">
<rect rx="6" ry="6" x="-12" y="-12" width="24" height="24" class="key"/>
</g>
<g transform="translate(98, 135)" class="key keypos-24">
<rect rx="6" ry="6" x="-12" y="-12" width="24" height="24" class="key"/>
</g>
<g transform="translate(126, 142)" class="key keypos-25">
<rect rx="6" ry="6" x="-12" y="-12" width="24" height="24" class="key"/>
</g>
<g transform="translate(210, 142)" class="key keypos-26">
<rect rx="6" ry="6" x="-12" y="-12" width="24" height="24" class="key"/>
</g>
<g transform="translate(238, 135)" class="key keypos-27">
<rect rx="6" ry="6" x="-12" y="-12" width="24" height="24" class="key"/>
</g>
<g transform="translate(266, 128)" class="key keypos-28">
<rect rx="6" ry="6" x="-12" y="-12" width="24" height="24" class="key"/>
</g>
<g transform="translate(294, 135)" class="key keypos-29">
<rect rx="6" ry="6" x="-12" y="-12" width="24" height="24" class="key"/>
</g>
<g transform="translate(322, 146)" class="key keypos-30">
<rect rx="6" ry="6" x="-12" y="-12" width="24" height="24" class="key"/>
</g>
<g transform="translate(56, 177)" class="key keypos-31">
<rect rx="6" ry="6" x="-12" y="-12" width="24" height="24" class="key"/>
</g>
<g transform="translate(84, 170)" class="key keypos-32">
<rect rx="6" ry="6" x="-12" y="-12" width="24" height="24" class="key"/>
</g>
<g transform="translate(112, 177)" class="key keypos-33">
<rect rx="6" ry="6" x="-12" y="-12" width="24" height="24" class="key"/>
</g>
<g transform="translate(140, 184)" class="key keypos-34">
<rect rx="6" ry="6" x="-12" y="-12" width="24" height="24" class="key"/>
</g>
<g transform="translate(196, 184)" class="key keypos-35">
<rect rx="6" ry="6" x="-12" y="-12" width="24" height="24" class="key"/>
</g>
<g transform="translate(224, 177)" class="key keypos-36">
<rect rx="6" ry="6" x="-12" y="-12" width="24" height="24" class="key"/>
</g>
</g>
</g>
<text x="717.0" y="960.0" class="footer">Created with <a href="https://github.com/caksoylar/keymap-drawer">keymap-drawer</a></text></svg>
